<svg width="154" height="154" viewBox="0 0 154 154" fill="none" xmlns="http://www.w3.org/2000/svg">
<path d="M139.855 15.4132C131.684 6.56081 120.851 1.17864 109.326 0.245508C97.8012 -0.687627 86.3497 2.89025 77.0543 10.3285C67.2621 2.43992 55.0739 -1.13712 42.9441 0.317663C30.8144 1.77245 19.644 8.15101 11.6826 18.1688C3.72112 28.1867 -0.440095 41.0997 0.0369064 54.3075C0.513908 67.5152 5.59369 80.0367 14.2533 89.3504L71.59 151.534C72.3055 152.316 73.1567 152.936 74.0945 153.359C75.0324 153.782 76.0383 154 77.0543 154C78.0703 154 79.0762 153.782 80.0141 153.359C80.952 152.936 81.8032 152.316 82.5186 151.534L139.855 89.3504C144.34 84.4967 147.897 78.7337 150.324 72.3904C152.751 66.0472 154 59.2481 154 52.3818C154 45.5155 152.751 38.7164 150.324 32.3732C147.897 26.03 144.34 20.2669 139.855 15.4132ZM129.004 77.5138L77.0543 133.779L25.105 77.5138C19.1436 71.208 15.6228 62.6803 15.258 53.6638C14.8933 44.6474 17.712 35.8189 23.1414 28.9725C28.5707 22.1262 36.2032 17.7758 44.4876 16.8055C52.7721 15.8352 61.0868 18.3178 67.7419 23.7489L54.5814 57.0914C54.1241 58.1774 53.8874 59.3571 53.8874 60.5507C53.8874 61.7444 54.1241 62.9241 54.5814 64.01C55.0702 65.0948 55.7707 66.0517 56.6344 66.8145C57.4981 67.5772 58.5045 68.1277 59.5839 68.4279L80.9024 74.2629L70.1277 98.3529C69.6812 99.3377 69.4185 100.408 69.3548 101.503C69.2911 102.598 69.4276 103.696 69.7565 104.734C70.0855 105.772 70.6003 106.729 71.2715 107.551C71.9427 108.372 72.7571 109.043 73.668 109.523C74.7234 110.076 75.8816 110.361 77.0543 110.356C78.4967 110.359 79.9109 109.923 81.1356 109.098C82.3603 108.273 83.3462 107.091 83.9809 105.688L99.3733 72.3457C99.8657 71.226 100.121 70.0015 100.121 68.7614C100.121 67.5212 99.8657 66.2967 99.3733 65.177C98.8647 64.0593 98.1415 63.0721 97.2523 62.2815C96.363 61.4909 95.3281 60.915 94.2168 60.5924L72.4366 54.6741L83.5961 26.4163C89.8522 19.8724 98.2523 16.2884 106.948 16.4525C115.644 16.6167 123.924 20.5156 129.966 27.2915C136.008 34.0675 139.317 43.1654 139.165 52.5839C139.014 62.0024 135.414 70.97 129.158 77.5138H129.004Z" fill="url(#paint0_linear_2952_20036)"/>
<defs>
<linearGradient id="paint0_linear_2952_20036" x1="77" y1="0" x2="77" y2="154" gradientUnits="userSpaceOnUse">
<stop stop-color="#00CEA9"/>
<stop offset="0.67" stop-color="#006855"/>
</linearGradient>
</defs>
</svg>
